<?xml version="1.0" encoding="UTF-8" standalone="no"?>
<!DOCTYPE svg PUBLIC "-//W3C//DTD SVG 1.1//EN"
 "http://www.w3.org/Graphics/SVG/1.1/DTD/svg11.dtd">
<!-- Generated by graphviz version 2.43.0 (0)
 -->
<!-- Title: hadder2 Pages: 1 -->
<svg width="966pt" height="171pt"
 viewBox="0.00 0.00 966.32 171.00" xmlns="http://www.w3.org/2000/svg" xmlns:xlink="http://www.w3.org/1999/xlink">
<g id="graph0" class="graph" transform="scale(1 1) rotate(0) translate(4 167)">
<title>hadder2</title>
<polygon fill="white" stroke="transparent" points="-4,4 -4,-167 962.32,-167 962.32,4 -4,4"/>
<text text-anchor="middle" x="479.16" y="-7.8" font-family="Times,serif" font-size="14.00">hadder2</text>
<!-- n1 -->
<g id="node1" class="node">
<title>n1</title>
<polygon fill="none" stroke="black" points="54,-137.54 54,-152.46 38.18,-163 15.82,-163 0,-152.46 0,-137.54 15.82,-127 38.18,-127 54,-137.54"/>
<text text-anchor="middle" x="27" y="-141.3" font-family="Times,serif" font-size="14.00">a</text>
</g>
<!-- c13 -->
<g id="node10" class="node">
<title>c13</title>
<polygon fill="none" stroke="black" points="90,-95 90,-141 237,-141 237,-95 90,-95"/>
<text text-anchor="middle" x="103" y="-125.8" font-family="Times,serif" font-size="14.00">a</text>
<polyline fill="none" stroke="black" points="90,-118 116,-118 "/>
<text text-anchor="middle" x="103" y="-102.8" font-family="Times,serif" font-size="14.00">b</text>
<polyline fill="none" stroke="black" points="116,-95 116,-141 "/>
<text text-anchor="middle" x="149.5" y="-121.8" font-family="Times,serif" font-size="14.00">Ha1</text>
<text text-anchor="middle" x="149.5" y="-106.8" font-family="Times,serif" font-size="14.00">hadder</text>
<polyline fill="none" stroke="black" points="183,-95 183,-141 "/>
<text text-anchor="middle" x="210" y="-125.8" font-family="Times,serif" font-size="14.00">carry</text>
<polyline fill="none" stroke="black" points="183,-118 237,-118 "/>
<text text-anchor="middle" x="210" y="-102.8" font-family="Times,serif" font-size="14.00">sum</text>
</g>
<!-- n1&#45;&gt;c13 -->
<g id="edge1" class="edge">
<title>n1:e&#45;&gt;c13:w</title>
<path fill="none" stroke="black" d="M54,-145C67.27,-145 71.16,-136.21 80.04,-132.09"/>
<polygon fill="black" stroke="black" points="80.93,-135.47 90,-130 79.49,-128.62 80.93,-135.47"/>
</g>
<!-- n2 -->
<g id="node2" class="node">
<title>n2</title>
<polygon fill="none" stroke="black" points="54,-83.54 54,-98.46 38.18,-109 15.82,-109 0,-98.46 0,-83.54 15.82,-73 38.18,-73 54,-83.54"/>
<text text-anchor="middle" x="27" y="-87.3" font-family="Times,serif" font-size="14.00">b</text>
</g>
<!-- n2&#45;&gt;c13 -->
<g id="edge2" class="edge">
<title>n2:e&#45;&gt;c13:w</title>
<path fill="none" stroke="black" d="M54,-91C67.27,-91 71.16,-99.79 80.04,-103.91"/>
<polygon fill="black" stroke="black" points="79.49,-107.38 90,-106 80.93,-100.53 79.49,-107.38"/>
</g>
<!-- n3 -->
<g id="node3" class="node">
<title>n3</title>
<polygon fill="none" stroke="black" points="368.02,-33.54 368.02,-48.46 352.2,-59 329.83,-59 314.02,-48.46 314.02,-33.54 329.83,-23 352.2,-23 368.02,-33.54"/>
<text text-anchor="middle" x="341.02" y="-37.3" font-family="Times,serif" font-size="14.00">c</text>
</g>
<!-- c14 -->
<g id="node11" class="node">
<title>c14</title>
<polygon fill="none" stroke="black" points="445.99,-44 445.99,-90 592.99,-90 592.99,-44 445.99,-44"/>
<text text-anchor="middle" x="458.99" y="-74.8" font-family="Times,serif" font-size="14.00">a</text>
<polyline fill="none" stroke="black" points="445.99,-67 471.99,-67 "/>
<text text-anchor="middle" x="458.99" y="-51.8" font-family="Times,serif" font-size="14.00">b</text>
<polyline fill="none" stroke="black" points="471.99,-44 471.99,-90 "/>
<text text-anchor="middle" x="505.49" y="-70.8" font-family="Times,serif" font-size="14.00">Ha2</text>
<text text-anchor="middle" x="505.49" y="-55.8" font-family="Times,serif" font-size="14.00">hadder</text>
<polyline fill="none" stroke="black" points="538.99,-44 538.99,-90 "/>
<text text-anchor="middle" x="565.99" y="-74.8" font-family="Times,serif" font-size="14.00">carry</text>
<polyline fill="none" stroke="black" points="538.99,-67 592.99,-67 "/>
<text text-anchor="middle" x="565.99" y="-51.8" font-family="Times,serif" font-size="14.00">sum</text>
</g>
<!-- n3&#45;&gt;c14 -->
<g id="edge3" class="edge">
<title>n3:e&#45;&gt;c14:w</title>
<path fill="none" stroke="black" d="M369.02,-41C399.75,-41 408.84,-52.2 435,-54.57"/>
<polygon fill="black" stroke="black" points="434.89,-58.06 445.04,-55 435.2,-51.07 434.89,-58.06"/>
</g>
<!-- n4 -->
<g id="node4" class="node">
<title>n4</title>
<polygon fill="none" stroke="black" points="958.31,-110.54 958.31,-125.46 936.06,-136 904.6,-136 882.35,-125.46 882.35,-110.54 904.6,-100 936.06,-100 958.31,-110.54"/>
<text text-anchor="middle" x="920.33" y="-114.3" font-family="Times,serif" font-size="14.00">carry</text>
</g>
<!-- n5 -->
<g id="node5" class="node">
<title>n5</title>
<polygon fill="none" stroke="black" points="673.14,-113 629.74,-95 673.14,-77 716.54,-95 673.14,-113"/>
<text text-anchor="middle" x="673.14" y="-91.3" font-family="Times,serif" font-size="14.00">fullc</text>
</g>
<!-- c12 -->
<g id="node9" class="node">
<title>c12</title>
<polygon fill="none" stroke="black" points="752.34,-95 752.34,-141 846.34,-141 846.34,-95 752.34,-95"/>
<text text-anchor="middle" x="765.84" y="-125.8" font-family="Times,serif" font-size="14.00">A</text>
<polyline fill="none" stroke="black" points="752.34,-118 779.34,-118 "/>
<text text-anchor="middle" x="765.84" y="-102.8" font-family="Times,serif" font-size="14.00">B</text>
<polyline fill="none" stroke="black" points="779.34,-95 779.34,-141 "/>
<text text-anchor="middle" x="799.84" y="-121.8" font-family="Times,serif" font-size="14.00">$1</text>
<text text-anchor="middle" x="799.84" y="-106.8" font-family="Times,serif" font-size="14.00">$or</text>
<polyline fill="none" stroke="black" points="820.34,-95 820.34,-141 "/>
<text text-anchor="middle" x="833.34" y="-114.3" font-family="Times,serif" font-size="14.00">Y</text>
</g>
<!-- n5&#45;&gt;c12 -->
<g id="edge6" class="edge">
<title>n5:e&#45;&gt;c12:w</title>
<path fill="none" stroke="black" d="M716.34,-95C729.02,-95 733.55,-101.32 742.28,-104.38"/>
<polygon fill="black" stroke="black" points="741.91,-107.86 752.34,-106 743.02,-100.95 741.91,-107.86"/>
</g>
<!-- n6 -->
<g id="node6" class="node">
<title>n6</title>
<polygon fill="none" stroke="black" points="519.49,-159 445.08,-141 519.49,-123 593.89,-141 519.49,-159"/>
<text text-anchor="middle" x="519.49" y="-137.3" font-family="Times,serif" font-size="14.00">halfcarry</text>
</g>
<!-- n6&#45;&gt;c12 -->
<g id="edge8" class="edge">
<title>n6:e&#45;&gt;c12:w</title>
<path fill="none" stroke="black" d="M593.94,-141C660.93,-141 679.88,-131.09 741.99,-130.08"/>
<polygon fill="black" stroke="black" points="742.37,-133.58 752.34,-130 742.31,-126.58 742.37,-133.58"/>
</g>
<!-- n7 -->
<g id="node7" class="node">
<title>n7</title>
<polygon fill="none" stroke="black" points="341.02,-113 272.98,-95 341.02,-77 409.05,-95 341.02,-113"/>
<text text-anchor="middle" x="341.02" y="-91.3" font-family="Times,serif" font-size="14.00">halfsum</text>
</g>
<!-- n7&#45;&gt;c14 -->
<g id="edge10" class="edge">
<title>n7:e&#45;&gt;c14:w</title>
<path fill="none" stroke="black" d="M409.04,-95C422.44,-95 426.16,-85.62 435.02,-81.22"/>
<polygon fill="black" stroke="black" points="436.03,-84.59 445.04,-79 434.51,-77.75 436.03,-84.59"/>
</g>
<!-- n8 -->
<g id="node8" class="node">
<title>n8</title>
<polygon fill="none" stroke="black" points="706.27,-33.54 706.27,-48.46 686.86,-59 659.42,-59 640.01,-48.46 640.01,-33.54 659.42,-23 686.86,-23 706.27,-33.54"/>
<text text-anchor="middle" x="673.14" y="-37.3" font-family="Times,serif" font-size="14.00">sum</text>
</g>
<!-- c12&#45;&gt;n4 -->
<g id="edge4" class="edge">
<title>c12:e&#45;&gt;n4:w</title>
<path fill="none" stroke="black" d="M846.34,-118C858.34,-118 863.59,-118 872.21,-118"/>
<polygon fill="black" stroke="black" points="872.34,-121.5 882.34,-118 872.34,-114.5 872.34,-121.5"/>
</g>
<!-- c13&#45;&gt;n6 -->
<g id="edge7" class="edge">
<title>c13:e&#45;&gt;n6:w</title>
<path fill="none" stroke="black" d="M237,-130C326.15,-130 350.65,-140.2 435.01,-140.96"/>
<polygon fill="black" stroke="black" points="435.02,-144.46 445.04,-141 435.05,-137.46 435.02,-144.46"/>
</g>
<!-- c13&#45;&gt;n7 -->
<g id="edge9" class="edge">
<title>c13:e&#45;&gt;n7:w</title>
<path fill="none" stroke="black" d="M237,-106C249.68,-106 254.21,-99.68 262.94,-96.62"/>
<polygon fill="black" stroke="black" points="263.69,-100.05 273,-95 262.57,-93.14 263.69,-100.05"/>
</g>
<!-- c14&#45;&gt;n5 -->
<g id="edge5" class="edge">
<title>c14:e&#45;&gt;n5:w</title>
<path fill="none" stroke="black" d="M593.94,-79C607.34,-79 611.06,-88.38 619.93,-92.78"/>
<polygon fill="black" stroke="black" points="619.42,-96.25 629.94,-95 620.94,-89.41 619.42,-96.25"/>
</g>
<!-- c14&#45;&gt;n8 -->
<g id="edge11" class="edge">
<title>c14:e&#45;&gt;n8:w</title>
<path fill="none" stroke="black" d="M593.94,-55C611.03,-55 616.3,-45.76 628.96,-42.29"/>
<polygon fill="black" stroke="black" points="629.66,-45.73 639.14,-41 628.78,-38.79 629.66,-45.73"/>
</g>
</g>
</svg>
